<?xml version="1.0" standalone="no"?>
<!DOCTYPE svg PUBLIC "-//W3C//DTD SVG 20010904//EN"
 "http://www.w3.org/TR/2001/REC-SVG-20010904/DTD/svg10.dtd">
<svg version="1.0" xmlns="http://www.w3.org/2000/svg"
 width="164.000000pt" height="164.000000pt" viewBox="0 0 164.000000 164.000000"
 preserveAspectRatio="xMidYMid meet">
<metadata>
Created by potrace 1.14, written by Peter Selinger 2001-2017
</metadata>
<g transform="translate(0.000000,164.000000) scale(0.100000,-0.100000)"
fill="#000000" stroke="none">
<path d="M580 1469 c-162 -94 -299 -175 -305 -180 -6 -6 1 -20 20 -39 l30 -29
155 91 c349 204 393 228 405 228 6 0 50 -22 96 -48 46 -27 161 -93 254 -147
94 -54 189 -109 213 -123 l42 -24 0 -354 0 -354 -32 -20 c-18 -11 -149 -87
-290 -168 -142 -81 -258 -152 -258 -158 0 -12 42 -54 54 -54 12 0 600 342 608
354 4 6 8 188 8 403 l0 393 -57 35 c-118 73 -628 365 -638 365 -5 0 -143 -77
-305 -171z"/>
<path d="M60 1325 l1 -60 176 -185 c97 -102 258 -270 357 -375 99 -104 229
-239 288 -300 l107 -110 35 19 36 19 -32 36 c-17 20 -111 119 -208 221 -97
102 -266 279 -375 395 -110 116 -241 253 -292 305 l-93 95 0 -60z"/>
<path d="M560 1227 c0 -3 16 -32 35 -65 40 -69 112 -152 149 -171 14 -8 26
-18 26 -22 0 -9 -51 -25 -108 -34 l-42 -7 27 -33 c20 -24 37 -34 58 -34 39 -1
125 35 199 83 l60 38 -71 28 c-64 24 -139 68 -131 75 2 2 80 -1 173 -5 189 -8
258 -26 309 -79 l27 -29 -43 -6 c-99 -15 -188 -80 -224 -164 -24 -57 -15 -181
18 -254 32 -70 83 -144 106 -157 13 -7 27 -4 50 11 l32 20 -40 45 c-51 59 -90
142 -97 208 -14 139 78 215 262 215 58 0 85 4 85 12 0 21 -61 106 -109 151
-92 86 -158 105 -411 116 -177 8 -232 18 -322 56 -10 4 -18 5 -18 2z"/>
<path d="M191 955 l0 -60 211 -220 c115 -121 262 -275 325 -342 l116 -122 39
20 40 21 -83 86 c-46 48 -169 177 -274 287 -104 110 -231 243 -282 295 l-93
95 1 -60z"/>
<path d="M270 636 l0 -56 197 -208 c346 -364 348 -365 369 -358 10 4 27 13 38
21 17 13 -2 36 -285 332 -167 175 -307 320 -311 321 -5 2 -8 -22 -8 -52z"/>
</g>
</svg>
